<?xml version="1.0" encoding="utf-8"?>
<!-- Generator: Adobe Illustrator 25.0.0, SVG Export Plug-In . SVG Version: 6.00 Build 0)  -->
<svg version="1.1" id="Слой_1" xmlns="http://www.w3.org/2000/svg" xmlns:xlink="http://www.w3.org/1999/xlink" x="0px" y="0px"
	 viewBox="0 0 128 128" style="enable-background:new 0 0 128 128;" xml:space="preserve">
<style type="text/css">
	.st0{display:none;opacity:0.61;}
	.st1{fill:#CAFC3F;}
	.st2{display:none;}
	.st3{display:inline;fill:#012E6C;}
	.st4{display:inline;fill:#004FA6;}
	.st5{display:inline;fill:#0977B8;}
	.st6{display:inline;fill:#0097E1;}
	.st7{display:inline;fill:#FFFFFF;}
	.st8{display:inline;fill:#00B8FF;}
	.st9{display:none;fill:none;stroke:#E30613;stroke-width:0.25;stroke-miterlimit:10;}
</style>
<g id="Слой_1_1_" class="st0">
</g>
<g id="Слой_2_1_">
	<path class="st1" d="M104.9,136.4H0V-8.4h104.8c22.2,0,40.1,17.9,40.1,39.9v64.8C144.9,118.5,127,136.4,104.9,136.4z"/>
	<g class="st2">
		<path class="st3" d="M70.9,89.8l-39.2-0.1c-2,0-2.6-2.8-0.8-3.6l8.2-3.7c6.2-2.8,12.9-4.2,19.7-4.2l38.9,0.1c2,0,2.6,2.7,0.8,3.6
			L91,85.4C84.8,88.3,77.9,89.8,70.9,89.8z"/>
		<path class="st4" d="M70.9,79.4l-39.2-0.1c-2,0-2.6-2.8-0.8-3.6l8.2-3.7c6.2-2.8,12.9-4.2,19.7-4.2l38.9,0.1c2,0,2.6,2.7,0.8,3.6
			L91,75C84.8,77.9,77.9,79.4,70.9,79.4z"/>
		<path class="st5" d="M70.9,69.8l-39.2-0.1c-2,0-2.6-2.8-0.8-3.6l8.2-3.7c6.2-2.8,12.9-4.2,19.7-4.2l38.9,0.1c2,0,2.6,2.7,0.8,3.6
			L91,65.4C84.8,68.3,77.9,69.8,70.9,69.8z"/>
		<path class="st6" d="M70.9,59.7l-39.2-0.1c-2,0-2.6-2.8-0.8-3.6l8.2-3.7c6.2-2.8,12.9-4.2,19.7-4.2l38.9,0.1c2,0,2.6,2.7,0.8,3.6
			L91,55.3C84.8,58.2,77.9,59.7,70.9,59.7z"/>
		<path class="st7" d="M88.2,76.2l2.3-3.8c0.3-1.3,0.5-2.8,0.5-4.4c0-0.9-0.1-1.7-0.1-2.5l-2.6,1.1l2-3.9c-0.3-0.9-0.6-1.8-1-2.7
			c-0.6-1.2-1.4-2.2-2.3-3.1l-2.2,0.8l0.8-1.9c-0.4-0.3-0.8-0.6-1.3-0.8c-2.2-1.2-4.7-1.8-7.7-1.8H65.8V83h10.6c3,0,5.6-0.6,7.8-1.8
			c2.2-1.2,3.9-2.9,5-5.1c0.1-0.1,0.1-0.2,0.1-0.3L88.2,76.2z M83.7,73.4c-0.6,1.4-1.6,2.4-2.9,3.1s-2.8,1-4.7,1h-4v-19h4
			c1.9,0,3.4,0.3,4.7,1c1.3,0.7,2.2,1.7,2.9,3.1c0.6,1.4,1,3.2,1,5.4C84.6,70.2,84.3,72,83.7,73.4z"/>
		<polygon class="st7" points="48.3,77.7 48.3,53.1 42,53.1 42,57.1 44.5,59.6 42,59.6 42,67.3 44.5,69.8 42,69.8 42,76.8 
			44.5,79.4 42,79.4 42,82.9 61.1,82.9 61.1,77.7 		"/>
		<path class="st8" d="M70.9,50.7l-39.2-0.1c-2,0-2.6-2.8-0.8-3.6l8.2-3.7c6.2-2.8,12.9-4.2,19.7-4.2l38.9,0.1c2,0,2.6,2.7,0.8,3.6
			L91,46.3C84.8,49.2,77.9,50.7,70.9,50.7z"/>
	</g>
	<rect x="29.8" y="30.4" class="st9" width="70" height="70"/>
</g>
</svg>
