<?xml version="1.0" encoding="utf-8"?>
<!-- Generator: Adobe Illustrator 25.0.0, SVG Export Plug-In . SVG Version: 6.00 Build 0)  -->
<svg version="1.1" id="Слой_1" xmlns="http://www.w3.org/2000/svg" xmlns:xlink="http://www.w3.org/1999/xlink" x="0px" y="0px"
	 viewBox="0 0 128 128" style="enable-background:new 0 0 128 128;" xml:space="preserve">
<style type="text/css">
	.st0{opacity:0.61;}
	.st1{fill:#012E6C;}
	.st2{fill:#004FA6;}
	.st3{fill:#0977B8;}
	.st4{fill:#0097E1;}
	.st5{fill:#FFFFFF;}
	.st6{fill:#00B8FF;}
	.st7{display:none;fill:none;stroke:#E30613;stroke-width:0.25;stroke-miterlimit:10;}
</style>
<g id="Слой_1_1_" class="st0">
</g>
<g id="Слой_2_1_">
	<g>
		<path class="st1" d="M75,108.8l-69.3-0.2c-3.5,0-4.6-5-1.4-6.4l14.5-6.5c11-5,22.8-7.4,34.8-7.4l68.8,0.2c3.5,0,4.6,4.8,1.4,6.4
			l-13.3,6.2C99.6,106.2,87.3,108.8,75,108.8z"/>
		<path class="st2" d="M75,90.4L5.6,90.3c-3.5,0-4.6-5-1.4-6.4l14.5-6.5c11-5,22.8-7.4,34.8-7.4l68.8,0.2c3.5,0,4.6,4.8,1.4,6.4
			l-13.3,6.2C99.6,87.8,87.3,90.4,75,90.4z"/>
		<path class="st3" d="M75,73.5L5.6,73.3c-3.5,0-4.6-5-1.4-6.4l14.5-6.5c11-5,22.8-7.4,34.8-7.4l68.8,0.2c3.5,0,4.6,4.8,1.4,6.4
			l-13.3,6.2C99.6,70.8,87.3,73.5,75,73.5z"/>
		<path class="st4" d="M75,55.6L5.6,55.4c-3.5,0-4.6-5-1.4-6.4l14.5-6.5c11-5,22.8-7.4,34.8-7.4l68.8,0.2c3.5,0,4.6,4.8,1.4,6.4
			l-13.3,6.2C99.6,52.9,87.3,55.6,75,55.6z"/>
		<path class="st5" d="M105.6,84.8l4.1-6.7c0.5-2.3,0.9-5,0.9-7.8c0-1.6-0.2-3-0.2-4.4l-4.6,1.9l3.5-6.9c-0.5-1.6-1.1-3.2-1.8-4.8
			c-1.1-2.1-2.5-3.9-4.1-5.5l-3.9,1.4l1.4-3.4c-0.7-0.5-1.4-1.1-2.3-1.4c-3.9-2.1-8.3-3.2-13.6-3.2H65.9v52.7h18.8
			c5.3,0,9.9-1.1,13.8-3.2c3.9-2.1,6.9-5.1,8.8-9c0.2-0.2,0.2-0.4,0.2-0.5L105.6,84.8z M97.6,79.8c-1.1,2.5-2.8,4.2-5.1,5.5
			c-2.3,1.2-5,1.8-8.3,1.8h-7.1V53.5h7.1c3.4,0,6,0.5,8.3,1.8c2.3,1.2,3.9,3,5.1,5.5c1.1,2.5,1.8,5.7,1.8,9.6
			C99.2,74.2,98.7,77.4,97.6,79.8z"/>
		<polygon class="st5" points="35,87.4 35,43.9 23.8,43.9 23.8,51 28.3,55.4 23.8,55.4 23.8,69 28.3,73.5 23.8,73.5 23.8,85.8 
			28.3,90.4 23.8,90.4 23.8,96.6 57.6,96.6 57.6,87.4 		"/>
		<path class="st6" d="M75,39.7L5.6,39.5c-3.5,0-4.6-5-1.4-6.4l14.5-6.5c11-5,22.8-7.4,34.8-7.4l68.8,0.2c3.5,0,4.6,4.8,1.4,6.4
			l-13.3,6.2C99.6,37,87.3,39.7,75,39.7z"/>
	</g>
	<rect x="29.8" y="30.4" class="st7" width="70" height="70"/>
</g>
</svg>
