<?xml version="1.0" encoding="utf-8"?>
<!-- Generator: Adobe Illustrator 25.0.0, SVG Export Plug-In . SVG Version: 6.00 Build 0)  -->
<svg version="1.1" id="Слой_1" xmlns="http://www.w3.org/2000/svg" xmlns:xlink="http://www.w3.org/1999/xlink" x="0px" y="0px"
	 viewBox="0 0 128 128" style="enable-background:new 0 0 128 128;" xml:space="preserve">
<style type="text/css">
	.st0{opacity:0.61;}
	.st1{fill:#D6FD57;}
	.st2{fill:#012E6C;}
	.st3{fill:#004FA6;}
	.st4{fill:#0977B8;}
	.st5{fill:#0097E1;}
	.st6{fill:#FFFFFF;}
	.st7{fill:#00B8FF;}
	.st8{display:none;fill:none;stroke:#E30613;stroke-width:0.25;stroke-miterlimit:10;}
</style>
<g id="Слой_1_1_" class="st0">
</g>
<path class="st1" d="M88,128H40c-22.1,0-40-17.9-40-40V40C0,17.9,17.9,0,40,0h48c22.1,0,40,17.9,40,40v48
	C128,110.1,110.1,128,88,128z"/>
<g id="Слой_2_1_">
	<g>
		<path class="st2" d="M72.5,98.8l-53.8-0.1c-2.7,0-3.6-3.8-1.1-4.9l11.3-5.1c8.5-3.8,17.7-5.8,27.1-5.8l53.4,0.1
			c2.7,0,3.6,3.7,1.1,4.9l-10.3,4.8C91.6,96.8,82.1,98.8,72.5,98.8z"/>
		<path class="st3" d="M72.5,84.5l-53.8-0.1c-2.7,0-3.6-3.8-1.1-4.9l11.3-5.1c8.5-3.8,17.7-5.8,27.1-5.8l53.4,0.1
			c2.7,0,3.6,3.7,1.1,4.9l-10.3,4.8C91.6,82.5,82.1,84.5,72.5,84.5z"/>
		<path class="st4" d="M72.5,71.3l-53.8-0.1c-2.7,0-3.6-3.8-1.1-4.9l11.3-5.1c8.5-3.8,17.7-5.8,27.1-5.8l53.4,0.1
			c2.7,0,3.6,3.7,1.1,4.9l-10.3,4.8C91.6,69.3,82.1,71.3,72.5,71.3z"/>
		<path class="st5" d="M72.5,57.5l-53.8-0.1c-2.7,0-3.6-3.8-1.1-4.9l11.3-5.1c8.5-3.8,17.7-5.8,27.1-5.8l53.4,0.1
			c2.7,0,3.6,3.7,1.1,4.9l-10.3,4.8C91.6,55.4,82.1,57.5,72.5,57.5z"/>
		<path class="st6" d="M96.3,80.1l3.2-5.2c0.4-1.8,0.7-3.8,0.7-6c0-1.2-0.1-2.3-0.1-3.4L96.4,67l2.7-5.4c-0.4-1.2-0.8-2.5-1.4-3.7
			c-0.8-1.6-1.9-3-3.2-4.3l-3,1.1l1.1-2.6c-0.5-0.4-1.1-0.8-1.8-1.1c-3-1.6-6.5-2.5-10.6-2.5H65.5v40.9h14.6c4.1,0,7.7-0.8,10.7-2.5
			c3-1.6,5.4-4,6.9-7c0.1-0.1,0.1-0.3,0.1-0.4L96.3,80.1z M90.1,76.3c-0.8,1.9-2.2,3.3-4,4.3c-1.8,1-3.8,1.4-6.5,1.4h-5.5V55.8h5.5
			c2.6,0,4.7,0.4,6.5,1.4c1.8,1,3,2.3,4,4.3c0.8,1.9,1.4,4.4,1.4,7.4C91.3,71.9,90.9,74.4,90.1,76.3z"/>
		<polygon class="st6" points="41.5,82.2 41.5,48.4 32.8,48.4 32.8,53.9 36.3,57.3 32.8,57.3 32.8,67.9 36.3,71.3 32.8,71.3 
			32.8,81 36.3,84.5 32.8,84.5 32.8,89.3 59.1,89.3 59.1,82.2 		"/>
		<path class="st7" d="M72.5,45.1L18.7,45c-2.7,0-3.6-3.8-1.1-4.9L28.8,35c8.5-3.8,17.7-5.8,27.1-5.8l53.4,0.1
			c2.7,0,3.6,3.7,1.1,4.9l-10.3,4.8C91.6,43.1,82.1,45.1,72.5,45.1z"/>
	</g>
	<rect x="29.8" y="30.4" class="st8" width="70" height="70"/>
</g>
</svg>
